<?xml version="1.0" standalone="no"?>
<!DOCTYPE svg PUBLIC "-//W3C//DTD SVG 20010904//EN"
 "http://www.w3.org/TR/2001/REC-SVG-20010904/DTD/svg10.dtd">
<svg version="1.0" xmlns="http://www.w3.org/2000/svg"
 width="512.000000pt" height="512.000000pt" viewBox="0 0 512.000000 512.000000"
 preserveAspectRatio="xMidYMid meet">

<g transform="translate(0.000000,512.000000) scale(0.100000,-0.100000)"
fill="#0A66C2" stroke="none">
<path d="M2370 4699 c-430 -46 -835 -258 -1100 -575 -41 -49 -75 -91 -77 -93
-1 -2 -24 12 -50 32 -103 74 -203 107 -330 107 -152 0 -278 -52 -383 -159
-102 -103 -159 -236 -160 -372 0 -67 36 -197 70 -252 17 -27 30 -50 30 -51 0
-2 -33 -28 -73 -59 -81 -63 -131 -119 -186 -210 -85 -140 -111 -258 -111 -503
0 -172 0 -175 25 -199 l24 -25 489 0 489 0 53 -92 c252 -443 671 -740 1169
-830 161 -29 410 -29 571 0 206 37 431 123 589 226 40 25 75 46 80 46 6 0 472
-476 564 -576 27 -30 27 -31 12 -67 -21 -50 -18 -123 6 -177 14 -32 78 -103
217 -241 187 -187 200 -197 250 -209 57 -13 125 -3 165 25 49 34 132 124 148
160 24 52 24 129 -1 182 -24 54 -369 407 -425 435 -52 27 -129 28 -185 3 l-43
-19 -269 274 c-147 151 -276 285 -284 298 -16 22 -14 25 87 130 107 111 179
207 259 347 l47 80 522 5 523 5 19 24 c17 21 19 41 19 196 0 244 -26 362 -111
502 -55 91 -105 147 -186 210 -40 31 -73 57 -73 59 0 1 13 24 30 51 34 55 70
185 70 252 -1 236 -174 455 -407 516 -74 19 -199 19 -276 -1 -79 -20 -143 -53
-213 -110 -31 -25 -59 -42 -63 -37 -4 4 -30 37 -58 73 -104 132 -281 290 -428
380 -299 184 -698 276 -1035 239z m467 -188 c595 -131 1036 -572 1165 -1168
31 -144 31 -446 0 -587 -103 -462 -388 -833 -797 -1036 -214 -106 -381 -148
-620 -157 -435 -16 -829 145 -1136 463 -191 199 -320 440 -381 714 -20 91 -23
131 -23 310 0 225 11 298 66 465 109 326 337 615 634 802 148 94 376 178 560
208 128 21 409 13 532 -14z m-1885 -531 c31 -11 75 -38 98 -58 l43 -38 -51
-104 c-60 -123 -113 -278 -139 -405 l-18 -90 -59 -3 c-78 -4 -177 27 -241 75
-107 82 -151 177 -143 312 8 130 79 235 199 296 97 50 206 55 311 15z m3514
-9 c81 -38 134 -87 175 -163 32 -60 34 -68 34 -163 0 -89 -3 -106 -28 -157
-36 -73 -119 -149 -195 -179 -44 -18 -77 -23 -147 -23 -119 0 -128 5 -143 93
-16 95 -84 295 -132 391 l-39 77 40 41 c114 119 287 152 435 83z m-3952 -770
c11 -17 122 -63 186 -77 36 -7 88 -14 116 -14 l51 0 6 -127 c7 -145 27 -265
62 -388 14 -47 25 -87 25 -90 0 -3 -178 -5 -395 -5 l-395 0 0 133 c0 149 13
215 62 314 38 78 125 175 202 225 62 40 71 43 80 29z m4172 -29 c77 -50 164
-147 202 -225 49 -99 62 -165 62 -314 l0 -133 -424 0 -424 0 20 63 c36 114 58
241 69 397 l12 155 101 0 c112 0 215 26 278 71 18 12 36 23 39 24 3 0 32 -17
65 -38z m-149 -2279 c95 -100 173 -189 173 -198 0 -9 -21 -38 -46 -65 -69 -74
-79 -71 -199 53 -198 202 -255 265 -255 282 0 10 22 40 49 67 39 39 55 49 77
46 20 -2 71 -49 201 -185z"/>
<path d="M2409 4335 c-396 -100 -608 -532 -439 -894 17 -36 41 -79 54 -96 12
-16 26 -35 29 -42 5 -7 -19 -29 -63 -58 -181 -120 -315 -306 -381 -526 -20
-67 -23 -101 -26 -345 l-5 -271 28 -22 27 -21 927 0 927 0 27 21 28 22 -5 271
c-3 244 -6 278 -26 345 -66 220 -200 406 -381 526 -69 46 -70 48 -55 69 132
182 167 392 99 594 -34 102 -82 179 -159 255 -75 74 -147 119 -247 154 -90 32
-268 41 -359 18z m308 -176 c107 -37 208 -120 265 -219 103 -178 68 -424 -81
-570 -237 -232 -636 -163 -777 135 -32 66 -37 89 -42 171 -8 162 41 282 157
387 130 116 313 153 478 96z m-444 -1029 c188 -93 386 -93 575 1 l83 41 70
-42 c168 -100 295 -263 350 -452 17 -59 22 -109 26 -265 l5 -193 -136 0 -136
0 0 90 c0 99 -10 132 -47 149 -36 17 -59 13 -89 -12 -25 -22 -27 -30 -32 -125
l-5 -102 -377 0 -377 0 -5 102 c-5 95 -7 103 -32 125 -30 25 -53 29 -89 12
-37 -17 -47 -50 -47 -149 l0 -90 -136 0 -136 0 5 193 c4 156 9 206 26 265 55
188 181 351 348 451 37 22 70 41 71 41 2 0 41 -18 85 -40z"/>
</g>
</svg>
